<svg width="176" height="64" viewBox="0 0 176 64" fill="none" xmlns="http://www.w3.org/2000/svg">
<path d="M12.5173 22.5097V21.8148C12.8647 21.7937 13.1122 21.72 13.2596 21.5937C13.4175 21.4673 13.5175 21.2778 13.5597 21.0251C13.6018 20.7724 13.6228 20.4513 13.6228 20.0617V13.4915C13.6228 13.2599 13.6281 13.0388 13.6386 12.8282C13.6492 12.6071 13.6597 12.4176 13.6702 12.2596C13.4912 12.2702 13.2964 12.2807 13.0858 12.2912C12.8753 12.3018 12.6857 12.3123 12.5173 12.3228V11.4542H16.4025V12.1491C16.0656 12.1596 15.8181 12.2333 15.6602 12.3702C15.5023 12.4965 15.4022 12.6861 15.3601 12.9388C15.318 13.1809 15.297 13.5021 15.297 13.9022V20.4407C15.297 20.725 15.2917 20.9777 15.2812 21.1988C15.2812 21.4094 15.2706 21.5831 15.2496 21.72L17.9187 21.6884C18.5715 21.6779 19.0716 21.4673 19.4191 21.0567C19.7666 20.6355 19.9403 19.9722 19.9403 19.0667H20.651L20.5562 22.5097H12.5173ZM26.5193 22.5097C26.4983 22.3412 26.4825 22.1938 26.4719 22.0675C26.4614 21.9411 26.4456 21.8095 26.4246 21.6726C26.0666 22.0306 25.6823 22.3044 25.2716 22.4939C24.861 22.6729 24.4346 22.7624 23.9923 22.7624C23.2342 22.7624 22.6604 22.5781 22.2708 22.2096C21.8918 21.8306 21.7023 21.362 21.7023 20.804C21.7023 20.3197 21.8444 19.8985 22.1287 19.5405C22.413 19.1825 22.7868 18.893 23.25 18.6719C23.7133 18.4402 24.2187 18.2717 24.7662 18.1665C25.3137 18.0506 25.8507 17.9927 26.3772 17.9927V17.0609C26.3772 16.724 26.3456 16.4134 26.2824 16.1291C26.2192 15.8343 26.0876 15.5974 25.8876 15.4184C25.698 15.2288 25.398 15.1341 24.9873 15.1341C24.7136 15.1236 24.4398 15.1762 24.1661 15.292C23.8923 15.3973 23.6817 15.5763 23.5343 15.829C23.6186 15.9132 23.6712 16.0133 23.6923 16.1291C23.7238 16.2344 23.7396 16.3344 23.7396 16.4292C23.7396 16.5766 23.6765 16.745 23.5501 16.9346C23.4238 17.1135 23.2079 17.1978 22.9026 17.1873C22.6499 17.1873 22.4551 17.103 22.3182 16.9346C22.1919 16.7556 22.1287 16.5502 22.1287 16.3186C22.1287 15.9396 22.2656 15.6026 22.5393 15.3078C22.8236 15.013 23.2079 14.7814 23.6923 14.6129C24.1766 14.4444 24.7188 14.3602 25.319 14.3602C26.2245 14.3602 26.8984 14.5971 27.3406 15.0709C27.7933 15.5447 28.0197 16.2923 28.0197 17.3136C28.0197 17.6926 28.0197 18.0559 28.0197 18.4034C28.0197 18.7508 28.0144 19.0983 28.0039 19.4457C28.0039 19.7932 28.0039 20.1617 28.0039 20.5513C28.0039 20.7092 27.9987 20.8882 27.9881 21.0883C27.9776 21.2883 27.9618 21.4989 27.9407 21.72C28.1197 21.7095 28.304 21.699 28.4935 21.6884C28.683 21.6779 28.862 21.6726 29.0305 21.6726V22.5097H26.5193ZM26.3772 18.7192C26.0402 18.7403 25.6928 18.7877 25.3348 18.8614C24.9873 18.9351 24.6715 19.0456 24.3872 19.193C24.1029 19.3404 23.8713 19.53 23.6923 19.7616C23.5238 19.9933 23.4396 20.2723 23.4396 20.5987C23.4606 20.9567 23.5764 21.2199 23.787 21.3884C24.0081 21.5568 24.2661 21.6411 24.5609 21.6411C24.9294 21.6411 25.2558 21.5726 25.5401 21.4357C25.8244 21.2883 26.1034 21.0883 26.3772 20.8356C26.3666 20.7198 26.3614 20.6039 26.3614 20.4881C26.3614 20.3618 26.3614 20.2302 26.3614 20.0933C26.3614 19.9985 26.3614 19.8248 26.3614 19.5721C26.3719 19.3089 26.3772 19.0246 26.3772 18.7192ZM32.4401 22.5571L30.4343 16.6819C30.3501 16.4502 30.2816 16.2607 30.229 16.1133C30.1763 15.9553 30.1342 15.8237 30.1026 15.7184C30.071 15.6026 30.0447 15.4973 30.0237 15.4026L29.2656 15.45V14.6129H32.756V15.2604C32.3348 15.271 32.0979 15.4236 32.0452 15.7184C31.9926 16.0027 32.04 16.366 32.1874 16.8082L32.8507 18.9246C32.9244 19.1772 32.9981 19.4352 33.0718 19.6984C33.1455 19.9511 33.2192 20.2038 33.2929 20.4565C33.3772 20.1933 33.4614 19.9195 33.5456 19.6353C33.6299 19.351 33.7246 19.0456 33.8299 18.7192L35.1408 14.6129H36.1516L37.6362 19.1299C37.7099 19.3615 37.7836 19.6037 37.8573 19.8564C37.9415 20.0985 38.0205 20.3354 38.0942 20.5671C38.1679 20.3354 38.2416 20.1038 38.3153 19.8722C38.3995 19.6405 38.4732 19.4142 38.5364 19.193L39.4367 16.5239C39.5209 16.2817 39.5946 16.0712 39.6578 15.8922C39.7315 15.7026 39.8157 15.5342 39.9105 15.3868L38.9944 15.45V14.6129H41.8373V15.2604C41.5846 15.271 41.374 15.3236 41.2055 15.4184C41.0371 15.5026 40.8897 15.6132 40.7633 15.75C40.6475 15.8764 40.5527 16.0238 40.479 16.1923C40.4053 16.3502 40.3422 16.5081 40.2895 16.6661L38.1732 22.5571H37.194L35.8357 18.5613C35.7831 18.3928 35.7252 18.2138 35.662 18.0243C35.5988 17.8243 35.5304 17.6189 35.4567 17.4084C35.3935 17.1978 35.3303 16.9977 35.2671 16.8082C35.2145 17.0293 35.1461 17.2662 35.0618 17.5189C34.9881 17.7611 34.9144 17.998 34.8407 18.2296C34.767 18.4507 34.7038 18.6455 34.6512 18.814L33.3719 22.5571H32.4401ZM52.2517 22.7624C51.2514 22.7624 50.3933 22.5939 49.6773 22.257C48.9719 21.9201 48.3981 21.4726 47.9558 20.9145C47.5136 20.346 47.1872 19.7195 46.9766 19.0351C46.7661 18.3507 46.6608 17.6663 46.6608 16.9819C46.6608 16.3186 46.7713 15.65 46.9924 14.9761C47.2241 14.2918 47.5663 13.6653 48.019 13.0967C48.4823 12.5281 49.0561 12.0701 49.7405 11.7227C50.4354 11.3752 51.2462 11.2015 52.1727 11.2015C53.1414 11.2015 53.9732 11.3752 54.6681 11.7227C55.3736 12.0701 55.9527 12.5334 56.4054 13.1125C56.8582 13.6811 57.1951 14.3023 57.4162 14.9761C57.6479 15.65 57.7637 16.3186 57.7637 16.9819C57.7637 17.6347 57.6479 18.3033 57.4162 18.9877C57.1951 19.6616 56.8529 20.2881 56.3896 20.8672C55.9369 21.4357 55.3683 21.8938 54.6839 22.2412C53.9995 22.5887 53.1888 22.7624 52.2517 22.7624ZM52.3307 21.9411C52.9414 21.9411 53.4678 21.8043 53.91 21.5305C54.3628 21.2567 54.7313 20.8935 55.0156 20.4407C55.3104 19.9775 55.5263 19.4721 55.6631 18.9246C55.8 18.3665 55.8684 17.8137 55.8684 17.2662C55.8684 16.5924 55.7895 15.9448 55.6315 15.3236C55.4736 14.6919 55.2314 14.1286 54.905 13.6337C54.5892 13.1283 54.1943 12.7334 53.7205 12.4492C53.2467 12.1543 52.6992 12.0069 52.078 12.0069C51.4673 12.0069 50.9356 12.1491 50.4828 12.4334C50.0301 12.7177 49.6616 13.0914 49.3773 13.5547C49.093 14.0075 48.8771 14.5129 48.7297 15.0709C48.5928 15.6184 48.5244 16.1712 48.5244 16.7292C48.5244 17.2767 48.5981 17.8558 48.7455 18.4665C48.8929 19.0772 49.1193 19.6458 49.4246 20.1722C49.73 20.6987 50.1196 21.1251 50.5934 21.4515C51.0777 21.7779 51.6568 21.9411 52.3307 21.9411ZM60.0874 14.2338C60.0874 13.0335 60.3191 12.1175 60.7824 11.4858C61.2562 10.854 61.9985 10.5381 63.0093 10.5381C63.3251 10.5381 63.62 10.5908 63.8937 10.6961C64.1675 10.7908 64.3886 10.933 64.557 11.1225C64.7255 11.3015 64.8097 11.5173 64.8097 11.77C64.8097 12.0017 64.7413 12.1965 64.6044 12.3544C64.4781 12.5123 64.2938 12.5966 64.0516 12.6071C63.7779 12.6176 63.5778 12.5387 63.4515 12.3702C63.3357 12.2017 63.2778 12.0333 63.2778 11.8648C63.2778 11.8122 63.2778 11.7542 63.2778 11.6911C63.2883 11.6279 63.3093 11.5647 63.3409 11.5015C63.2672 11.4173 63.1725 11.3594 63.0566 11.3278C62.9514 11.2962 62.8513 11.2804 62.7566 11.2804C62.4828 11.2804 62.2722 11.3594 62.1248 11.5173C61.9774 11.6753 61.8721 11.8753 61.8089 12.1175C61.7458 12.3597 61.7142 12.6071 61.7142 12.8598V14.6129H63.7358V15.4342L61.73 15.4815L61.7458 20.5355C61.7458 20.725 61.7405 20.9198 61.73 21.1199C61.7195 21.3199 61.7037 21.52 61.6826 21.72C61.8511 21.7095 62.0248 21.7042 62.2038 21.7042C62.3933 21.6937 62.5618 21.6832 62.7092 21.6726V22.5097H59.1556V21.8464C59.4715 21.8464 59.6926 21.7727 59.819 21.6253C59.9453 21.4779 60.019 21.2725 60.0401 21.0093C60.0716 20.7461 60.0874 20.4407 60.0874 20.0933V15.4973L58.8397 15.5289V14.6129H60.0874V14.2338ZM64.7701 22.5097V21.8464C65.086 21.8464 65.3071 21.7727 65.4335 21.6253C65.5598 21.4779 65.6335 21.2725 65.6546 21.0093C65.6862 20.7461 65.702 20.4407 65.702 20.0933L65.6862 15.4973L64.4385 15.5289V14.6129H65.6862C65.7072 13.2546 66.0284 12.2386 66.6496 11.5647C67.2813 10.8803 68.1973 10.5381 69.3977 10.5381C70.061 10.5381 70.6348 10.6118 71.1192 10.7592C71.6035 10.9067 71.9773 11.1014 72.2405 11.3436C72.5037 11.5752 72.6301 11.8174 72.6196 12.0701C72.6196 12.2807 72.5564 12.4755 72.43 12.6545C72.3037 12.8335 72.1089 12.923 71.8457 12.923C71.5719 12.9335 71.3666 12.8545 71.2297 12.6861C71.1034 12.5176 71.0402 12.3439 71.0402 12.1649C71.0402 12.1017 71.0455 12.0385 71.056 11.9754C71.0665 11.9016 71.0823 11.8332 71.1034 11.77C70.977 11.6647 70.7875 11.5647 70.5348 11.47C70.2926 11.3647 69.9768 11.312 69.5872 11.312C69.0713 11.312 68.6448 11.4226 68.3079 11.6437C67.971 11.8648 67.7183 12.1859 67.5498 12.6071C67.3919 13.0177 67.3129 13.5126 67.3129 14.0917V14.6129H70.1716C70.4874 14.6129 70.7822 14.6076 71.056 14.5971C71.3298 14.5866 71.5561 14.5708 71.7351 14.5497C71.9141 14.5181 72.0194 14.4865 72.051 14.455H72.6512V20.5513C72.6512 20.7408 72.6459 20.9356 72.6354 21.1357C72.6248 21.3252 72.609 21.52 72.588 21.72C72.7564 21.7095 72.9249 21.7042 73.0934 21.7042C73.2724 21.6937 73.4356 21.6832 73.583 21.6726V22.5097H70.061V21.8464C70.3769 21.8464 70.598 21.7727 70.7243 21.6253C70.8507 21.4779 70.9244 21.2725 70.9454 21.0093C70.977 20.7461 70.9928 20.4407 70.9928 20.0933V16.5081C70.9928 16.3397 70.9981 16.1659 71.0086 15.9869C71.0191 15.7974 71.0349 15.5921 71.056 15.371L67.3287 15.4657L67.3445 20.5513C67.3445 20.7408 67.3392 20.9356 67.3287 21.1357C67.3182 21.3252 67.3024 21.52 67.2813 21.72C67.4498 21.7095 67.6235 21.7042 67.8025 21.7042C67.992 21.6937 68.1605 21.6832 68.3079 21.6726V22.5097H64.7701ZM78.569 22.7624C77.8635 22.7624 77.216 22.6045 76.6263 22.2886C76.0367 21.9622 75.5629 21.4989 75.2049 20.8988C74.8574 20.2986 74.6837 19.5721 74.6837 18.7192C74.6837 18.1507 74.7837 17.6084 74.9838 17.0925C75.1839 16.566 75.4629 16.0975 75.8209 15.6869C76.1894 15.2762 76.6211 14.9551 77.1159 14.7234C77.6213 14.4813 78.1794 14.3602 78.7901 14.3602C79.4113 14.3602 79.943 14.455 80.3852 14.6445C80.8274 14.834 81.1644 15.0814 81.396 15.3868C81.6382 15.6921 81.7593 16.0238 81.7593 16.3818C81.7593 16.6345 81.6856 16.8556 81.5382 17.0451C81.3907 17.2346 81.1802 17.3294 80.9064 17.3294C80.6011 17.3399 80.3852 17.2504 80.2589 17.0609C80.1325 16.8608 80.0693 16.6766 80.0693 16.5081C80.0693 16.4134 80.0851 16.3081 80.1167 16.1923C80.1483 16.0659 80.2062 15.9553 80.2905 15.8606C80.2062 15.6395 80.0693 15.4763 79.8798 15.371C79.6903 15.2657 79.4955 15.1973 79.2955 15.1657C79.0954 15.1341 78.9269 15.1183 78.7901 15.1183C78.1478 15.1288 77.6055 15.4078 77.1633 15.9553C76.7316 16.4923 76.5158 17.2715 76.5158 18.2928C76.5158 18.9456 76.6105 19.53 76.8001 20.0459C77.0001 20.5618 77.2897 20.9725 77.6687 21.2778C78.0478 21.5831 78.5005 21.7411 79.027 21.7516C79.5008 21.7516 79.9588 21.6305 80.401 21.3884C80.8432 21.1357 81.2012 20.8198 81.475 20.4407L81.9804 20.883C81.675 21.3568 81.3223 21.7306 80.9222 22.0043C80.5326 22.2781 80.1325 22.4729 79.7219 22.5887C79.3218 22.7045 78.9375 22.7624 78.569 22.7624ZM86.8356 22.7624C86.0985 22.7624 85.4352 22.5939 84.8456 22.257C84.2665 21.9095 83.8084 21.4252 83.4715 20.804C83.1346 20.1722 82.9661 19.4299 82.9661 18.5771C82.9661 17.8401 83.1293 17.1504 83.4557 16.5081C83.7927 15.8659 84.2612 15.3499 84.8614 14.9603C85.4615 14.5602 86.1564 14.3602 86.9461 14.3602C87.3883 14.3602 87.8042 14.4286 88.1938 14.5655C88.5939 14.7024 88.9466 14.9182 89.252 15.213C89.5679 15.4973 89.8153 15.8711 89.9943 16.3344C90.1733 16.7871 90.2628 17.3399 90.2628 17.9927L84.8298 18.0875C84.8298 18.8035 84.9087 19.4405 85.0667 19.9985C85.2351 20.5566 85.5036 20.9883 85.8721 21.2936C86.2407 21.5989 86.7197 21.7516 87.3094 21.7516C87.5937 21.7516 87.8937 21.7042 88.2096 21.6095C88.536 21.5042 88.8413 21.3568 89.1256 21.1672C89.4204 20.9777 89.6679 20.7513 89.8679 20.4881L90.3575 20.9145C90.0417 21.3884 89.6784 21.7621 89.2678 22.0359C88.8571 22.2991 88.436 22.4834 88.0043 22.5887C87.5831 22.7045 87.1935 22.7624 86.8356 22.7624ZM84.8929 17.2662H88.5413C88.5413 16.8661 88.4834 16.5081 88.3675 16.1923C88.2622 15.8659 88.0938 15.6079 87.8621 15.4184C87.6305 15.2288 87.3357 15.1341 86.9777 15.1341C86.4197 15.1341 85.9616 15.3131 85.6037 15.6711C85.2457 16.0185 85.0088 16.5502 84.8929 17.2662ZM99.6396 22.7624C98.8921 22.7624 98.2182 22.5939 97.618 22.257C97.0179 21.9201 96.5388 21.4515 96.1808 20.8514C95.8334 20.2407 95.6596 19.5405 95.6596 18.7508C95.6596 17.898 95.8334 17.1451 96.1808 16.4923C96.5388 15.829 97.0179 15.3078 97.618 14.9288C98.2182 14.5497 98.8868 14.3602 99.6238 14.3602C100.371 14.3602 101.045 14.5339 101.645 14.8814C102.246 15.2183 102.719 15.6921 103.067 16.3028C103.425 16.903 103.604 17.5979 103.604 18.3876C103.604 19.2194 103.43 19.9669 103.083 20.6303C102.735 21.2936 102.261 21.8148 101.661 22.1938C101.072 22.5729 100.398 22.7624 99.6396 22.7624ZM99.7502 21.9727C100.256 21.9622 100.65 21.8043 100.935 21.4989C101.23 21.1936 101.44 20.804 101.566 20.3302C101.693 19.8458 101.756 19.3457 101.756 18.8298C101.756 18.377 101.714 17.9348 101.63 17.5031C101.556 17.0609 101.435 16.6608 101.266 16.3028C101.098 15.9448 100.877 15.6605 100.603 15.45C100.329 15.2288 99.9976 15.1236 99.608 15.1341C99.1132 15.1341 98.7078 15.2868 98.3919 15.5921C98.0866 15.8974 97.8602 16.2923 97.7128 16.7766C97.5759 17.2504 97.5075 17.7558 97.5075 18.2928C97.5075 18.914 97.5865 19.5037 97.7444 20.0617C97.9023 20.6197 98.1445 21.0777 98.4709 21.4357C98.8078 21.7937 99.2343 21.9727 99.7502 21.9727ZM105.803 14.2338C105.803 13.0335 106.034 12.1175 106.498 11.4858C106.971 10.854 107.714 10.5381 108.724 10.5381C109.04 10.5381 109.335 10.5908 109.609 10.6961C109.883 10.7908 110.104 10.933 110.272 11.1225C110.441 11.3015 110.525 11.5173 110.525 11.77C110.525 12.0017 110.456 12.1965 110.32 12.3544C110.193 12.5123 110.009 12.5966 109.767 12.6071C109.493 12.6176 109.293 12.5387 109.167 12.3702C109.051 12.2017 108.993 12.0333 108.993 11.8648C108.993 11.8122 108.993 11.7542 108.993 11.6911C109.003 11.6279 109.024 11.5647 109.056 11.5015C108.982 11.4173 108.888 11.3594 108.772 11.3278C108.667 11.2962 108.566 11.2804 108.472 11.2804C108.198 11.2804 107.987 11.3594 107.84 11.5173C107.693 11.6753 107.587 11.8753 107.524 12.1175C107.461 12.3597 107.429 12.6071 107.429 12.8598V14.6129H109.451V15.4342L107.445 15.4815L107.461 20.5355C107.461 20.725 107.456 20.9198 107.445 21.1199C107.435 21.3199 107.419 21.52 107.398 21.72C107.566 21.7095 107.74 21.7042 107.919 21.7042C108.108 21.6937 108.277 21.6832 108.424 21.6726V22.5097H104.871V21.8464C105.187 21.8464 105.408 21.7727 105.534 21.6253C105.66 21.4779 105.734 21.2725 105.755 21.0093C105.787 20.7461 105.803 20.4407 105.803 20.0933V15.4973L104.555 15.5289V14.6129H105.803V14.2338Z" fill="#EEE3D9"/>
<path d="M28.4238 38.4881C28.2227 36.8425 27.6559 35.5808 26.7234 34.7032C25.7909 33.8072 24.575 33.3501 23.0756 33.3318C22.1248 33.3318 21.2472 33.5421 20.4426 33.9627C19.6381 34.3832 18.9433 34.9775 18.3582 35.7454C17.7731 36.4951 17.316 37.391 16.9869 38.4332C16.676 39.4572 16.5206 40.5817 16.5206 41.8067C16.5206 43.4706 16.8132 44.9517 17.3983 46.2499C17.9834 47.5298 18.7879 48.5263 19.8118 49.2394C20.854 49.9525 22.0334 50.309 23.3499 50.309C24.5201 50.309 25.672 50.0348 26.8057 49.4862C27.9576 48.9194 28.9084 48.124 29.6581 47.1001L30.5631 47.8681C29.7403 49.0017 28.8627 49.8702 27.9302 50.4736C26.9977 51.077 26.0651 51.4793 25.1326 51.6804C24.2184 51.8998 23.3865 52.0095 22.6368 52.0095C21.2654 52.0095 20.0038 51.7627 18.8519 51.269C17.7 50.7753 16.7035 50.0896 15.8624 49.212C15.0396 48.316 14.3996 47.283 13.9425 46.1127C13.5037 44.9242 13.2842 43.6443 13.2842 42.273C13.2842 40.9931 13.4854 39.7406 13.8876 38.5155C14.2899 37.2904 14.8841 36.1842 15.6704 35.1969C16.4566 34.1912 17.444 33.3958 18.6325 32.8107C19.8393 32.2256 21.238 31.9331 22.8288 31.9331C23.7613 31.9331 24.6664 32.0611 25.544 32.3171C26.44 32.573 27.2993 32.9662 28.1222 33.4964L27.985 32.1251H29.6855V38.4881H28.4238ZM40.9665 50.4188C41.515 50.4188 41.899 50.2908 42.1184 50.0348C42.3561 49.7788 42.4932 49.4222 42.5298 48.9651C42.5847 48.508 42.6121 47.9778 42.6121 47.3744L42.5847 43.5346C42.5847 42.0901 42.3561 41.0114 41.899 40.2983C41.4602 39.5669 40.7471 39.2103 39.7597 39.2286C39.1563 39.2469 38.5621 39.3932 37.977 39.6674C37.4101 39.9417 36.9347 40.2891 36.5508 40.7097V48.1698C36.5508 48.4989 36.5416 48.8371 36.5233 49.1845C36.505 49.5137 36.4776 49.8519 36.441 50.1993C36.7336 50.1811 37.0262 50.1719 37.3187 50.1719C37.6295 50.1536 37.913 50.1353 38.1689 50.1171V51.5707H32.0528V50.4188C32.6013 50.4188 32.9853 50.2908 33.2047 50.0348C33.4241 49.7788 33.5612 49.4222 33.6161 48.9651C33.6709 48.508 33.6984 47.9778 33.6984 47.3744V34.9775C33.6984 34.6666 33.6984 34.3558 33.6984 34.0449C33.7167 33.7158 33.7441 33.3684 33.7806 33.0027C33.4698 33.021 33.1407 33.0393 32.7933 33.0576C32.4459 33.0576 32.1259 33.0667 31.8333 33.085V31.6314C32.6561 31.6314 33.3144 31.5948 33.8081 31.5217C34.3018 31.4303 34.6766 31.3297 34.9326 31.22C35.2068 31.1103 35.408 30.9914 35.536 30.8634H36.5508V39.1463C36.953 38.8172 37.401 38.5247 37.8947 38.2687C38.3884 38.0127 38.8912 37.8116 39.4031 37.6653C39.9334 37.5007 40.4271 37.4184 40.8842 37.4184C42.5115 37.4184 43.6726 37.9121 44.3674 38.8995C45.0805 39.8869 45.4462 41.4319 45.4645 43.5346V48.1698C45.4645 48.4989 45.4553 48.8371 45.437 49.1845C45.437 49.5137 45.4096 49.8519 45.3548 50.1993C45.6473 50.1811 45.949 50.1719 46.2599 50.1719C46.5707 50.1536 46.8541 50.1353 47.1101 50.1171V51.5707H40.9665V50.4188ZM55.5972 52.0095C54.3173 52.0095 53.1653 51.717 52.1414 51.1318C51.1358 50.5285 50.3404 49.6874 49.7553 48.6086C49.1702 47.5115 48.8776 46.2224 48.8776 44.7414C48.8776 43.4615 49.161 42.2638 49.7278 41.1485C50.3129 40.0331 51.1266 39.1372 52.1688 38.4607C53.211 37.7658 54.4178 37.4184 55.7892 37.4184C56.5571 37.4184 57.2794 37.5373 57.9559 37.775C58.6507 38.0127 59.2632 38.3875 59.7935 38.8995C60.342 39.3932 60.7717 40.0423 61.0825 40.8468C61.3934 41.633 61.5488 42.593 61.5488 43.7266L52.114 43.8912C52.114 45.1345 52.2511 46.2407 52.5254 47.2098C52.8179 48.1789 53.2842 48.9286 53.9241 49.4588C54.5641 49.9891 55.3961 50.2542 56.42 50.2542C56.9137 50.2542 57.4348 50.1719 57.9833 50.0073C58.5501 49.8245 59.0804 49.5685 59.5741 49.2394C60.086 48.9103 60.5157 48.5172 60.8631 48.06L61.7134 48.8006C61.1648 49.6234 60.534 50.2725 59.8209 50.7479C59.1078 51.205 58.3764 51.525 57.6268 51.7078C56.8954 51.9089 56.2189 52.0095 55.5972 52.0095ZM52.2237 42.465H58.5593C58.5593 41.7702 58.4587 41.1485 58.2576 40.6C58.0747 40.0331 57.7822 39.5852 57.3799 39.256C56.9777 38.9269 56.4657 38.7624 55.844 38.7624C54.8749 38.7624 54.0796 39.0732 53.4579 39.6949C52.8362 40.2983 52.4248 41.2216 52.2237 42.465ZM63.8531 50.4188C64.4016 50.4188 64.7856 50.2908 65.005 50.0348C65.2244 49.7788 65.3524 49.4222 65.389 48.9651C65.4438 48.508 65.4713 47.9778 65.4713 47.3744V41.6696C65.4713 41.377 65.4713 41.0662 65.4713 40.7371C65.4895 40.3897 65.5261 40.0514 65.581 39.7223C65.2701 39.7406 64.941 39.7589 64.5936 39.7771C64.2462 39.7771 63.9262 39.7863 63.6337 39.8046V38.351H64.5662C65.3341 38.351 65.9192 38.2687 66.3215 38.1041C66.7238 37.9395 67.0163 37.7658 67.1992 37.583H68.1865C68.2231 37.839 68.2505 38.1955 68.2688 38.6526C68.2871 39.1098 68.3054 39.6217 68.3237 40.1885C68.6711 39.6766 69.0733 39.2195 69.5304 38.8172C69.9875 38.3967 70.4812 38.0584 71.0115 37.8024C71.56 37.5464 72.1268 37.4184 72.7119 37.4184C73.2788 37.4184 73.7633 37.5739 74.1656 37.8847C74.5861 38.1772 74.7964 38.6618 74.7964 39.3383C74.7964 39.5212 74.7415 39.7314 74.6318 39.9691C74.5404 40.2068 74.3758 40.4171 74.1381 40.6C73.9187 40.7645 73.617 40.8468 73.2331 40.8468C72.8491 40.8285 72.5108 40.6822 72.2183 40.408C71.944 40.1337 71.816 39.7589 71.8343 39.2835C71.3955 39.2835 70.9566 39.4206 70.5178 39.6949C70.079 39.9508 69.6676 40.2983 69.2836 40.7371C68.9179 41.1759 68.6071 41.6513 68.3511 42.1633V48.1698C68.3511 48.4989 68.3419 48.8371 68.3237 49.1845C68.3237 49.5137 68.2962 49.8519 68.2414 50.1993C68.5339 50.1811 68.8356 50.1719 69.1465 50.1719C69.4573 50.1536 69.7407 50.1353 69.9967 50.1171V51.5707H63.8531V50.4188ZM76.1737 50.4188C76.7223 50.4188 77.1062 50.2908 77.3256 50.0348C77.5451 49.7788 77.6731 49.4222 77.7096 48.9651C77.7645 48.508 77.7919 47.9778 77.7919 47.3744V41.697C77.7919 41.3862 77.801 41.0753 77.8193 40.7645C77.8376 40.4354 77.865 40.088 77.9016 39.7223C77.5908 39.7406 77.2617 39.7589 76.9142 39.7771C76.5668 39.7771 76.2469 39.7863 75.9543 39.8046V38.351C76.7771 38.351 77.4262 38.3144 77.9016 38.2412C78.3953 38.1498 78.7701 38.0493 79.0261 37.9395C79.3004 37.8298 79.5015 37.711 79.6295 37.583H80.6717V48.1698C80.6717 48.4989 80.6626 48.8371 80.6443 49.1845C80.626 49.5137 80.5986 49.8519 80.562 50.1993C80.8546 50.1811 81.1471 50.1719 81.4397 50.1719C81.7505 50.1536 82.0339 50.1353 82.2899 50.1171V51.5707H76.1737V50.4188ZM79.1084 35.0597C78.633 35.0597 78.2307 34.886 77.9016 34.5386C77.5725 34.1729 77.4079 33.7341 77.4079 33.2221C77.4079 32.7102 77.5816 32.2805 77.929 31.9331C78.2764 31.5674 78.6696 31.3845 79.1084 31.3845C79.5838 31.3845 79.9769 31.5674 80.2877 31.9331C80.6169 32.2805 80.7814 32.7102 80.7814 33.2221C80.7814 33.7341 80.6169 34.1729 80.2877 34.5386C79.9769 34.886 79.5838 35.0597 79.1084 35.0597ZM90.1312 52.0095C89.2718 52.0095 88.4764 51.8907 87.7451 51.653C87.0137 51.4335 86.4286 51.1684 85.9897 50.8576L86.072 51.7627H84.6184L84.4813 47.0453H85.6332C85.6698 47.7218 85.88 48.3343 86.264 48.8829C86.648 49.4314 87.1417 49.8611 87.7451 50.1719C88.3667 50.4827 89.0341 50.6382 89.7472 50.6382C90.1678 50.6382 90.5792 50.5742 90.9814 50.4462C91.3837 50.2999 91.7219 50.0896 91.9962 49.8154C92.2705 49.5228 92.4076 49.1663 92.4076 48.7457C92.4076 48.2886 92.2613 47.9138 91.9688 47.6212C91.6945 47.3104 91.3105 47.0361 90.8169 46.7984C90.3415 46.5607 89.7929 46.323 89.1713 46.0853C88.6227 45.8659 88.065 45.6373 87.4982 45.3996C86.9497 45.1619 86.4377 44.8785 85.9623 44.5494C85.4869 44.2203 85.1121 43.818 84.8378 43.3426C84.5635 42.8489 84.4264 42.2456 84.4264 41.5325C84.4264 41.1119 84.5087 40.6639 84.6733 40.1885C84.8378 39.6949 85.1029 39.2469 85.4686 38.8446C85.8343 38.4241 86.328 38.0858 86.9497 37.8298C87.5714 37.5556 88.3393 37.4184 89.2535 37.4184C89.7472 37.4184 90.2958 37.5007 90.8991 37.6653C91.5208 37.8298 92.0968 38.1133 92.627 38.5155L92.5996 37.5556H94.0532V42.3827H92.8739C92.819 41.7427 92.6453 41.1485 92.3528 40.6C92.0785 40.0514 91.6854 39.6034 91.1734 39.256C90.6614 38.9086 90.0398 38.7349 89.3084 38.7349C88.5953 38.7349 88.0102 38.9178 87.5531 39.2835C87.1142 39.6309 86.8948 40.0697 86.8948 40.6C86.8948 41.1302 87.0594 41.5599 87.3885 41.889C87.7359 42.2181 88.1839 42.5015 88.7324 42.7392C89.281 42.9769 89.8752 43.2146 90.5152 43.4523C91.2831 43.7632 92.0054 44.1014 92.6819 44.4671C93.3584 44.8328 93.9069 45.2899 94.3275 45.8385C94.748 46.387 94.9583 47.0818 94.9583 47.9229C94.9583 48.8371 94.7206 49.6051 94.2452 50.2268C93.7881 50.8302 93.1939 51.2781 92.4625 51.5707C91.7311 51.8632 90.954 52.0095 90.1312 52.0095ZM105.757 50.4188C106.306 50.4188 106.689 50.2908 106.909 50.0348C107.147 49.7788 107.284 49.4222 107.32 48.9651C107.375 48.508 107.403 47.9778 107.403 47.3744L107.375 43.5346C107.375 42.0901 107.147 41.0114 106.689 40.2983C106.251 39.5669 105.538 39.2103 104.55 39.2286C103.947 39.2469 103.353 39.3932 102.767 39.6674C102.201 39.9417 101.725 40.2891 101.341 40.7097V48.1698C101.341 48.4989 101.332 48.8371 101.314 49.1845C101.296 49.5137 101.268 49.8519 101.232 50.1993C101.524 50.1811 101.817 50.1719 102.109 50.1719C102.42 50.1536 102.703 50.1353 102.959 50.1171V51.5707H96.8433V50.4188C97.3918 50.4188 97.7758 50.2908 97.9952 50.0348C98.2146 49.7788 98.3517 49.4222 98.4066 48.9651C98.4614 48.508 98.4889 47.9778 98.4889 47.3744V34.9775C98.4889 34.6666 98.4889 34.3558 98.4889 34.0449C98.5072 33.7158 98.5346 33.3684 98.5711 33.0027C98.2603 33.021 97.9312 33.0393 97.5838 33.0576C97.2364 33.0576 96.9164 33.0667 96.6238 33.085V31.6314C97.4466 31.6314 98.1049 31.5948 98.5986 31.5217C99.0923 31.4303 99.4671 31.3297 99.7231 31.22C99.9973 31.1103 100.198 30.9914 100.326 30.8634H101.341V39.1463C101.744 38.8172 102.191 38.5247 102.685 38.2687C103.179 38.0127 103.682 37.8116 104.194 37.6653C104.724 37.5007 105.218 37.4184 105.675 37.4184C107.302 37.4184 108.463 37.9121 109.158 38.8995C109.871 39.8869 110.237 41.4319 110.255 43.5346V48.1698C110.255 48.4989 110.246 48.8371 110.228 49.1845C110.228 49.5137 110.2 49.8519 110.145 50.1993C110.438 50.1811 110.74 50.1719 111.05 50.1719C111.361 50.1536 111.645 50.1353 111.901 50.1171V51.5707H105.757V50.4188ZM130.692 52.0095C128.955 52.0095 127.465 51.717 126.221 51.1318C124.996 50.5467 124 49.7697 123.232 48.8006C122.464 47.8132 121.897 46.7253 121.531 45.5368C121.166 44.3483 120.983 43.1598 120.983 41.9713C120.983 40.8194 121.175 39.6583 121.559 38.4881C121.961 37.2996 122.555 36.2117 123.341 35.2243C124.146 34.2369 125.142 33.4416 126.331 32.8382C127.538 32.2348 128.946 31.9331 130.555 31.9331C132.237 31.9331 133.681 32.2348 134.888 32.8382C136.113 33.4416 137.119 34.2461 137.905 35.2517C138.691 36.2391 139.276 37.3179 139.66 38.4881C140.063 39.6583 140.264 40.8194 140.264 41.9713C140.264 43.1049 140.063 44.266 139.66 45.4545C139.276 46.6247 138.682 47.7126 137.878 48.7183C137.091 49.7057 136.104 50.501 134.916 51.1044C133.727 51.7078 132.319 52.0095 130.692 52.0095ZM130.829 50.5833C131.889 50.5833 132.804 50.3456 133.572 49.8702C134.358 49.3948 134.998 48.764 135.492 47.9778C136.003 47.1732 136.378 46.2956 136.616 45.3448C136.854 44.3757 136.973 43.4158 136.973 42.465C136.973 41.2948 136.835 40.1703 136.561 39.0915C136.287 37.9944 135.866 37.0162 135.3 36.1568C134.751 35.2791 134.065 34.5935 133.243 34.0998C132.42 33.5878 131.469 33.3318 130.39 33.3318C129.33 33.3318 128.406 33.5787 127.62 34.0724C126.834 34.5661 126.194 35.2152 125.7 36.0197C125.206 36.8059 124.832 37.6836 124.576 38.6526C124.338 39.6034 124.219 40.5634 124.219 41.5325C124.219 42.4833 124.347 43.4889 124.603 44.5494C124.859 45.6099 125.252 46.5973 125.782 47.5115C126.313 48.4257 126.989 49.1663 127.812 49.7331C128.653 50.2999 129.659 50.5833 130.829 50.5833ZM142.571 51.5707V50.4188C143.12 50.4188 143.504 50.2908 143.723 50.0348C143.943 49.7788 144.071 49.4222 144.107 48.9651C144.162 48.508 144.189 47.9778 144.189 47.3744V41.6696C144.189 41.377 144.189 41.0662 144.189 40.7371C144.208 40.3897 144.244 40.0514 144.299 39.7223C143.988 39.7406 143.659 39.7589 143.312 39.7771C142.964 39.7771 142.644 39.7863 142.352 39.8046V38.351C143.175 38.351 143.815 38.3144 144.272 38.2412C144.747 38.1498 145.104 38.0493 145.341 37.9395C145.597 37.8298 145.789 37.711 145.917 37.583H146.905C146.941 37.7658 146.96 37.9853 146.96 38.2412C146.978 38.4789 146.996 38.7349 147.014 39.0092C147.581 38.5338 148.221 38.1498 148.934 37.8573C149.666 37.5647 150.37 37.4184 151.046 37.4184C151.942 37.4184 152.683 37.583 153.268 37.9121C153.871 38.223 154.347 38.6709 154.694 39.256C155.334 38.7258 156.056 38.287 156.861 37.9395C157.665 37.5921 158.451 37.4184 159.219 37.4184C160.774 37.4184 161.925 37.8847 162.675 38.8172C163.425 39.7314 163.79 41.2673 163.772 43.4249L163.745 48.1698C163.745 48.4989 163.736 48.8371 163.717 49.1845C163.717 49.5137 163.69 49.8519 163.635 50.1993C163.928 50.1811 164.229 50.1719 164.54 50.1719C164.851 50.1536 165.134 50.1353 165.39 50.1171V51.5707H159.356V50.4188C159.868 50.4188 160.225 50.2908 160.426 50.0348C160.646 49.7788 160.774 49.4222 160.81 48.9651C160.865 48.508 160.892 47.9778 160.892 47.3744V43.4249C160.874 41.9804 160.636 40.9199 160.179 40.2434C159.722 39.5669 159.027 39.2286 158.095 39.2286C157.565 39.2286 157.043 39.3475 156.532 39.5852C156.02 39.8046 155.562 40.088 155.16 40.4354C155.252 40.7462 155.316 41.0936 155.352 41.4776C155.407 41.8433 155.434 42.2273 155.434 42.6295C155.416 43.5438 155.407 44.4671 155.407 45.3996C155.407 46.3139 155.407 47.2372 155.407 48.1698C155.407 48.4989 155.398 48.8371 155.38 49.1845C155.361 49.5137 155.334 49.8519 155.297 50.1993C155.59 50.1811 155.882 50.1719 156.175 50.1719C156.486 50.1536 156.769 50.1353 157.025 50.1171V51.5707H150.936V50.4188C151.485 50.4188 151.86 50.2908 152.061 50.0348C152.28 49.7788 152.408 49.4222 152.445 48.9651C152.5 48.508 152.527 47.9778 152.527 47.3744V43.3975C152.545 41.953 152.335 40.8925 151.896 40.216C151.476 39.5212 150.799 39.1829 149.867 39.2012C149.337 39.2012 148.825 39.32 148.331 39.5577C147.837 39.7771 147.408 40.0606 147.042 40.408C147.042 40.6274 147.042 40.8559 147.042 41.0936C147.06 41.3313 147.069 41.5873 147.069 41.8616V48.1698C147.069 48.4989 147.06 48.8371 147.042 49.1845C147.024 49.5137 146.996 49.8519 146.96 50.1993C147.252 50.1811 147.545 50.1719 147.837 50.1719C148.13 50.1536 148.404 50.1353 148.66 50.1171V51.5707H142.571Z" fill="#EEE3D9"/>
<line x1="4.62058" y1="10.6953" x2="4.62058" y2="59.1718" stroke="#EEE3D9" stroke-width="1.45429"/>
<line x1="1.22715" y1="14.0887" x2="1.22715" y2="62.5651" stroke="#EEE3D9" stroke-width="1.45429"/>
<line x1="165.805" y1="59.4142" x2="3.89334" y2="59.4142" stroke="#EEE3D9" stroke-width="1.45429"/>
<line x1="162.411" y1="62.8075" x2="0.499908" y2="62.8075" stroke="#EEE3D9" stroke-width="1.45429"/>
<line x1="171.379" y1="52.8698" x2="171.379" y2="4.39336" stroke="#EEE3D9" stroke-width="1.45429"/>
<line x1="174.773" y1="49.4764" x2="174.773" y2="0.999985" stroke="#EEE3D9" stroke-width="1.45429"/>
<line x1="10.1952" y1="4.15097" x2="172.107" y2="4.15095" stroke="#EEE3D9" stroke-width="1.45429"/>
<line x1="13.5886" y1="0.757655" x2="175.5" y2="0.757641" stroke="#EEE3D9" stroke-width="1.45429"/>
</svg>
